<?xml version="1.0" encoding="UTF-8"?>
<svg id="_レイヤー_1" data-name="レイヤー_1" xmlns="http://www.w3.org/2000/svg" version="1.1" viewBox="0 0 80 35">
  <!-- Generator: Adobe Illustrator 29.6.1, SVG Export Plug-In . SVG Version: 2.1.1 Build 9)  -->
  <defs>
    <style>
      .st0 {
        fill: #fff;
      }

      .st1 {
        font-size: 21px;
      }

      .st1, .st2, .st3 {
        fill: #6366f1;
      }

      .st1, .st3 {
        font-family: AgencyFB-Bold, 'Agency FB';
        font-weight: 700;
      }

      .st3 {
        font-size: 27px;
      }
    </style>
  </defs>
  <g>
    <rect class="st2" x=".15" y="0" width="35" height="35" rx="4" ry="4"/>
    <g>
      <path class="st0" d="M19.35,26.64h-2.89v-.46l-2.06.32c-.9.13-1.58.2-2.04.2-1.1,0-1.65-.54-1.65-1.62v-4.8c0-1.1.57-1.65,1.7-1.65h4.07v-3.06h-2.89v1.9h-2.73v-2.49c0-1.1.57-1.65,1.7-1.65h5.1c1.12,0,1.67.55,1.67,1.65v11.67ZM16.49,24.24v-3.57h-2.89v3.68l2.89-.11Z"/>
      <path class="st0" d="M24.58,11.42h-3.02v-3.11h3.02v3.11ZM24.56,26.64h-2.97v-13.32h2.97v13.32Z"/>
    </g>
  </g>
  <text class="st1" transform="translate(41.83 24.66)"><tspan x="0" y="0">x</tspan></text>
  <text class="st3" transform="translate(54.14 26.7)"><tspan x="0" y="0">biz</tspan></text>
</svg>